<mxfile host="Electron" modified="2024-03-22T16:11:01.370Z" agent="Mozilla/5.0 (Macintosh; Intel Mac OS X 10_15_7) AppleWebKit/537.36 (KHTML, like Gecko) draw.io/24.0.4 Chrome/120.0.6099.109 Electron/28.1.0 Safari/537.36" etag="zU6dDEwPtzhR0Wf0olgf" version="24.0.4" type="device">
  <diagram id="R2lEEEUBdFMjLlhIrx00" name="Page-1">
    <mxGraphModel dx="918" dy="581" grid="1" gridSize="10" guides="1" tooltips="1" connect="1" arrows="1" fold="1" page="1" pageScale="1" pageWidth="850" pageHeight="1100" math="0" shadow="0" extFonts="Permanent Marker^https://fonts.googleapis.com/css?family=Permanent+Marker">
      <root>
        <mxCell id="0" />
        <mxCell id="1" parent="0" />
        <mxCell id="Cri70IyVaQuLI49paAUv-16" style="rounded=0;orthogonalLoop=1;jettySize=auto;html=1;exitX=1;exitY=0.5;exitDx=0;exitDy=0;" edge="1" parent="1" source="Cri70IyVaQuLI49paAUv-1" target="Cri70IyVaQuLI49paAUv-14">
          <mxGeometry relative="1" as="geometry" />
        </mxCell>
        <mxCell id="Cri70IyVaQuLI49paAUv-17" style="rounded=0;orthogonalLoop=1;jettySize=auto;html=1;exitX=0.75;exitY=1;exitDx=0;exitDy=0;entryX=0;entryY=0;entryDx=0;entryDy=0;" edge="1" parent="1" source="Cri70IyVaQuLI49paAUv-1" target="Cri70IyVaQuLI49paAUv-8">
          <mxGeometry relative="1" as="geometry" />
        </mxCell>
        <mxCell id="Cri70IyVaQuLI49paAUv-1" value="Customers&amp;nbsp;" style="rounded=0;whiteSpace=wrap;html=1;" vertex="1" parent="1">
          <mxGeometry x="350" y="240" width="120" height="60" as="geometry" />
        </mxCell>
        <mxCell id="Cri70IyVaQuLI49paAUv-11" style="rounded=0;orthogonalLoop=1;jettySize=auto;html=1;exitX=0.25;exitY=1;exitDx=0;exitDy=0;entryX=1;entryY=0;entryDx=0;entryDy=0;" edge="1" parent="1" source="Cri70IyVaQuLI49paAUv-2" target="Cri70IyVaQuLI49paAUv-6">
          <mxGeometry relative="1" as="geometry" />
        </mxCell>
        <mxCell id="Cri70IyVaQuLI49paAUv-2" value="Services" style="rounded=0;whiteSpace=wrap;html=1;" vertex="1" parent="1">
          <mxGeometry x="180" y="120" width="120" height="60" as="geometry" />
        </mxCell>
        <mxCell id="Cri70IyVaQuLI49paAUv-27" style="rounded=0;orthogonalLoop=1;jettySize=auto;html=1;exitX=0.25;exitY=0;exitDx=0;exitDy=0;" edge="1" parent="1" source="Cri70IyVaQuLI49paAUv-3" target="Cri70IyVaQuLI49paAUv-21">
          <mxGeometry relative="1" as="geometry" />
        </mxCell>
        <mxCell id="Cri70IyVaQuLI49paAUv-28" style="rounded=0;orthogonalLoop=1;jettySize=auto;html=1;" edge="1" parent="1" source="Cri70IyVaQuLI49paAUv-3" target="Cri70IyVaQuLI49paAUv-22">
          <mxGeometry relative="1" as="geometry" />
        </mxCell>
        <mxCell id="Cri70IyVaQuLI49paAUv-31" style="rounded=0;orthogonalLoop=1;jettySize=auto;html=1;exitX=0.75;exitY=1;exitDx=0;exitDy=0;" edge="1" parent="1" source="Cri70IyVaQuLI49paAUv-3" target="Cri70IyVaQuLI49paAUv-25">
          <mxGeometry relative="1" as="geometry" />
        </mxCell>
        <mxCell id="Cri70IyVaQuLI49paAUv-32" style="rounded=0;orthogonalLoop=1;jettySize=auto;html=1;exitX=1;exitY=0.5;exitDx=0;exitDy=0;" edge="1" parent="1" source="Cri70IyVaQuLI49paAUv-3" target="Cri70IyVaQuLI49paAUv-26">
          <mxGeometry relative="1" as="geometry" />
        </mxCell>
        <mxCell id="Cri70IyVaQuLI49paAUv-3" value="Orders" style="rounded=0;whiteSpace=wrap;html=1;" vertex="1" parent="1">
          <mxGeometry x="620" y="110" width="120" height="60" as="geometry" />
        </mxCell>
        <mxCell id="Cri70IyVaQuLI49paAUv-4" value="&lt;u&gt;serviceID&lt;/u&gt;" style="ellipse;whiteSpace=wrap;html=1;" vertex="1" parent="1">
          <mxGeometry x="10" y="170" width="110" height="50" as="geometry" />
        </mxCell>
        <mxCell id="Cri70IyVaQuLI49paAUv-6" value="serviceTitle" style="ellipse;whiteSpace=wrap;html=1;" vertex="1" parent="1">
          <mxGeometry x="90" y="230" width="110" height="50" as="geometry" />
        </mxCell>
        <mxCell id="Cri70IyVaQuLI49paAUv-7" value="price" style="ellipse;whiteSpace=wrap;html=1;" vertex="1" parent="1">
          <mxGeometry x="20" y="100" width="110" height="50" as="geometry" />
        </mxCell>
        <mxCell id="Cri70IyVaQuLI49paAUv-8" value="phone" style="ellipse;whiteSpace=wrap;html=1;" vertex="1" parent="1">
          <mxGeometry x="470" y="400" width="110" height="50" as="geometry" />
        </mxCell>
        <mxCell id="Cri70IyVaQuLI49paAUv-9" value="lastName" style="ellipse;whiteSpace=wrap;html=1;" vertex="1" parent="1">
          <mxGeometry x="350" y="430" width="110" height="50" as="geometry" />
        </mxCell>
        <mxCell id="Cri70IyVaQuLI49paAUv-10" value="firstName" style="ellipse;whiteSpace=wrap;html=1;" vertex="1" parent="1">
          <mxGeometry x="230" y="370" width="110" height="50" as="geometry" />
        </mxCell>
        <mxCell id="Cri70IyVaQuLI49paAUv-12" style="rounded=0;orthogonalLoop=1;jettySize=auto;html=1;exitX=0;exitY=0.75;exitDx=0;exitDy=0;entryX=0.948;entryY=0.277;entryDx=0;entryDy=0;entryPerimeter=0;" edge="1" parent="1" source="Cri70IyVaQuLI49paAUv-2" target="Cri70IyVaQuLI49paAUv-4">
          <mxGeometry relative="1" as="geometry" />
        </mxCell>
        <mxCell id="Cri70IyVaQuLI49paAUv-13" style="rounded=0;orthogonalLoop=1;jettySize=auto;html=1;exitX=0;exitY=0;exitDx=0;exitDy=0;entryX=0.995;entryY=0.421;entryDx=0;entryDy=0;entryPerimeter=0;" edge="1" parent="1" source="Cri70IyVaQuLI49paAUv-2" target="Cri70IyVaQuLI49paAUv-7">
          <mxGeometry relative="1" as="geometry" />
        </mxCell>
        <mxCell id="Cri70IyVaQuLI49paAUv-14" value="password" style="ellipse;whiteSpace=wrap;html=1;" vertex="1" parent="1">
          <mxGeometry x="480" y="320" width="110" height="50" as="geometry" />
        </mxCell>
        <mxCell id="Cri70IyVaQuLI49paAUv-15" value="&lt;u&gt;email&lt;/u&gt;" style="ellipse;whiteSpace=wrap;html=1;" vertex="1" parent="1">
          <mxGeometry x="200" y="300" width="110" height="50" as="geometry" />
        </mxCell>
        <mxCell id="Cri70IyVaQuLI49paAUv-18" style="rounded=0;orthogonalLoop=1;jettySize=auto;html=1;exitX=0.5;exitY=1;exitDx=0;exitDy=0;entryX=0.421;entryY=0.042;entryDx=0;entryDy=0;entryPerimeter=0;" edge="1" parent="1" source="Cri70IyVaQuLI49paAUv-1" target="Cri70IyVaQuLI49paAUv-9">
          <mxGeometry relative="1" as="geometry" />
        </mxCell>
        <mxCell id="Cri70IyVaQuLI49paAUv-19" style="rounded=0;orthogonalLoop=1;jettySize=auto;html=1;exitX=0;exitY=0.75;exitDx=0;exitDy=0;" edge="1" parent="1" source="Cri70IyVaQuLI49paAUv-1" target="Cri70IyVaQuLI49paAUv-15">
          <mxGeometry relative="1" as="geometry" />
        </mxCell>
        <mxCell id="Cri70IyVaQuLI49paAUv-20" style="rounded=0;orthogonalLoop=1;jettySize=auto;html=1;exitX=0.25;exitY=1;exitDx=0;exitDy=0;entryX=0.91;entryY=0.221;entryDx=0;entryDy=0;entryPerimeter=0;" edge="1" parent="1" source="Cri70IyVaQuLI49paAUv-1" target="Cri70IyVaQuLI49paAUv-10">
          <mxGeometry relative="1" as="geometry" />
        </mxCell>
        <mxCell id="Cri70IyVaQuLI49paAUv-21" value="&lt;u&gt;orderID&lt;/u&gt;" style="ellipse;whiteSpace=wrap;html=1;" vertex="1" parent="1">
          <mxGeometry x="470" y="60" width="110" height="50" as="geometry" />
        </mxCell>
        <mxCell id="Cri70IyVaQuLI49paAUv-22" value="phone" style="ellipse;whiteSpace=wrap;html=1;" vertex="1" parent="1">
          <mxGeometry x="470" y="130" width="110" height="50" as="geometry" />
        </mxCell>
        <mxCell id="Cri70IyVaQuLI49paAUv-23" value="&lt;u&gt;emailCustomer&lt;/u&gt;" style="ellipse;whiteSpace=wrap;html=1;" vertex="1" parent="1">
          <mxGeometry x="480" y="190" width="110" height="50" as="geometry" />
        </mxCell>
        <mxCell id="Cri70IyVaQuLI49paAUv-24" value="service" style="ellipse;whiteSpace=wrap;html=1;" vertex="1" parent="1">
          <mxGeometry x="520" y="245" width="110" height="50" as="geometry" />
        </mxCell>
        <mxCell id="Cri70IyVaQuLI49paAUv-25" value="orderHour" style="ellipse;whiteSpace=wrap;html=1;" vertex="1" parent="1">
          <mxGeometry x="625" y="270" width="110" height="50" as="geometry" />
        </mxCell>
        <mxCell id="Cri70IyVaQuLI49paAUv-26" value="orderDate" style="ellipse;whiteSpace=wrap;html=1;" vertex="1" parent="1">
          <mxGeometry x="710" y="210" width="110" height="50" as="geometry" />
        </mxCell>
        <mxCell id="Cri70IyVaQuLI49paAUv-29" style="rounded=0;orthogonalLoop=1;jettySize=auto;html=1;exitX=0.25;exitY=1;exitDx=0;exitDy=0;entryX=0.965;entryY=0.395;entryDx=0;entryDy=0;entryPerimeter=0;" edge="1" parent="1" source="Cri70IyVaQuLI49paAUv-3" target="Cri70IyVaQuLI49paAUv-23">
          <mxGeometry relative="1" as="geometry" />
        </mxCell>
        <mxCell id="Cri70IyVaQuLI49paAUv-30" style="rounded=0;orthogonalLoop=1;jettySize=auto;html=1;exitX=0.5;exitY=1;exitDx=0;exitDy=0;entryX=0.93;entryY=0.218;entryDx=0;entryDy=0;entryPerimeter=0;" edge="1" parent="1" source="Cri70IyVaQuLI49paAUv-3" target="Cri70IyVaQuLI49paAUv-24">
          <mxGeometry relative="1" as="geometry" />
        </mxCell>
        <mxCell id="Cri70IyVaQuLI49paAUv-34" style="edgeStyle=orthogonalEdgeStyle;rounded=0;orthogonalLoop=1;jettySize=auto;html=1;exitX=0;exitY=0.5;exitDx=0;exitDy=0;endArrow=ERone;endFill=0;" edge="1" parent="1" source="Cri70IyVaQuLI49paAUv-33" target="Cri70IyVaQuLI49paAUv-1">
          <mxGeometry relative="1" as="geometry">
            <Array as="points">
              <mxPoint x="360" y="50" />
            </Array>
          </mxGeometry>
        </mxCell>
        <mxCell id="Cri70IyVaQuLI49paAUv-35" style="edgeStyle=orthogonalEdgeStyle;rounded=0;orthogonalLoop=1;jettySize=auto;html=1;exitX=1;exitY=0.5;exitDx=0;exitDy=0;entryX=0.5;entryY=0;entryDx=0;entryDy=0;endArrow=ERmany;endFill=0;" edge="1" parent="1" source="Cri70IyVaQuLI49paAUv-33" target="Cri70IyVaQuLI49paAUv-3">
          <mxGeometry relative="1" as="geometry" />
        </mxCell>
        <mxCell id="Cri70IyVaQuLI49paAUv-33" value="book a queue" style="rhombus;whiteSpace=wrap;html=1;" vertex="1" parent="1">
          <mxGeometry x="380" y="10" width="70" height="80" as="geometry" />
        </mxCell>
      </root>
    </mxGraphModel>
  </diagram>
</mxfile>
